<?xml version="1.0" encoding="UTF-8" standalone="no"?><!-- Generator: Gravit.io --><svg xmlns="http://www.w3.org/2000/svg" xmlns:xlink="http://www.w3.org/1999/xlink" style="isolation:isolate" viewBox="0 0 200 200" width="200pt" height="200pt"><g><path d=" M 142.195 32.8 C 133.19 48.72 119.459 64.799 117.439 84.165 C 117.385 85.822 119.056 105.786 119.056 105.786" fill="none" vector-effect="non-scaling-stroke" stroke-width="5" stroke="rgb(255,165,2)" stroke-linejoin="miter" stroke-linecap="round" stroke-miterlimit="3"/><path d=" M 143.054 33.3 C 158.246 42.255 166.981 52.854 174.805 68.478 C 184.355 84.371 189.985 101.164 191.274 117.781 C 192.051 127.802 188.572 141.831 182.989 147.135" fill="none" vector-effect="non-scaling-stroke" stroke-width="5" stroke="rgb(255,165,2)" stroke-linejoin="miter" stroke-linecap="square" stroke-miterlimit="3"/><path d=" M 37.894 74.447 C 44.745 65.829 49.603 61.459 56.235 72.07 C 57.026 72.861 56.63 72.861 56.63 72.861" fill="none" vector-effect="non-scaling-stroke" stroke-width="5" stroke="rgb(47,53,66)" stroke-linejoin="miter" stroke-linecap="square" stroke-miterlimit="3"/><path d=" M 90.607 67.092 C 67.269 72.072 51.466 58.664 36.072 43.27 C 31.174 36.536 29.159 33.86 27.713 31.329 C 21.793 20.969 23.334 31.598 23.334 38.095 C 23.334 52.287 25.83 64.913 23.732 77.502 C 21.505 90.866 15.401 100.45 13.383 110.54 C 11.075 122.078 11.386 135.602 15.771 144.374 C 19.401 151.632 23.508 157.881 28.664 162.642" fill="none" vector-effect="non-scaling-stroke" stroke-width="5" stroke="rgb(255,165,2)" stroke-linejoin="miter" stroke-linecap="square" stroke-miterlimit="3"/><circle vector-effect="non-scaling-stroke" cx="94.5" cy="63.5697810700166" r="8.5" fill="rgb(47,53,66)"/><path d=" M 30.664 164.366 C 43.077 173.716 58.224 178.567 73.189 183.211 C 92.926 186.885 109.767 186.806 126.427 180.602 C 142.922 174.461 155.824 167.141 168.457 159.302 C 174.697 155.43 177.957 151.763 182 148" fill="none" vector-effect="non-scaling-stroke" stroke-width="5" stroke="rgb(255,165,2)" stroke-linejoin="miter" stroke-linecap="square" stroke-miterlimit="3"/></g></svg>